{
  "accessors": [
    {
      "bufferView": 2,
      "componentType": 5126,
      "count": 626,
      "max": [
        5.599999904632568,
        191.47828674316406,
        5.599999904632568
      ],
      "min": [
        -5.599999904632568,
        98.36708068847656,
        -5.599999904632568
      ],
      "type": "VEC3"
    },
    {
      "bufferView": 2,
      "byteOffset": 7512,
      "componentType": 5126,
      "count": 626,
      "max": [
        1.0,
        1.0,
        1.0
      ],
      "min": [
        -1.0,
        -1.0,
        -1.0
      ],
      "type": "VEC3"
    },
    {
      "bufferView": 1,
      "componentType": 5126,
      "count": 626,
      "max": [
        0.9887963533401489,
        0.8377876281738281
      ],
      "min": [
        0.028240233659744263,
        0.013393193483352661
      ],
      "type": "VEC2"
    },
    {
      "bufferView": 0,
      "componentType": 5125,
      "count": 2226,
      "type": "SCALAR"
    },
    {
      "bufferView": 2,
      "byteOffset": 15024,
      "componentType": 5126,
      "count": 3079,
      "max": [
        45.0,
        98.36698913574219,
        44.947105407714844
      ],
      "min": [
        -45.0,
        59.4024543762207,
        -44.947105407714844
      ],
      "type": "VEC3"
    },
    {
      "bufferView": 2,
      "byteOffset": 51972,
      "componentType": 5126,
      "count": 3079,
      "max": [
        0.9984310269355774,
        1.0,
        0.9988569021224976
      ],
      "min": [
        -0.9984310269355774,
        -1.0,
        -0.9988569021224976
      ],
      "type": "VEC3"
    },
    {
      "bufferView": 1,
      "byteOffset": 5008,
      "componentType": 5126,
      "count": 3079,
      "max": [
        0.9943279027938843,
        0.943647027015686
      ],
      "min": [
        0.016827106475830078,
        0.027358531951904297
      ],
      "type": "VEC2"
    },
    {
      "bufferView": 0,
      "byteOffset": 8904,
      "componentType": 5125,
      "count": 10314,
      "type": "SCALAR"
    },
    {
      "bufferView": 2,
      "byteOffset": 88920,
      "componentType": 5126,
      "count": 439,
      "max": [
        4.036539077758789,
        90.92713928222656,
        4.036539554595947
      ],
      "min": [
        -4.0365400314331055,
        82.85406494140625,
        -4.036540985107422
      ],
      "type": "VEC3"
    },
    {
      "bufferView": 2,
      "byteOffset": 94188,
      "componentType": 5126,
      "count": 439,
      "max": [
        1.0,
        1.0,
        1.0
      ],
      "min": [
        -1.0,
        -1.0,
        -1.0
      ],
      "type": "VEC3"
    },
    {
      "bufferView": 1,
      "byteOffset": 29640,
      "componentType": 5126,
      "count": 439,
      "max": [
        0.9732646346092224,
        0.8292412161827087
      ],
      "min": [
        0.020745452493429184,
        0.22191643714904785
      ],
      "type": "VEC2"
    },
    {
      "bufferView": 0,
      "byteOffset": 50160,
      "componentType": 5125,
      "count": 2280,
      "type": "SCALAR"
    }
  ],
  "asset": {
    "extras": {
      "author": "Blizzy (https://sketchfab.com/jeffbas)",
      "license": "CC-BY-4.0 (http://creativecommons.org/licenses/by/4.0/)",
      "source": "https://sketchfab.com/3d-models/caroline-double-pendant-light-fd51bfbf8a0c45c5989668272f200c15",
      "title": "Caroline Double Pendant Light"
    },
    "generator": "Sketchfab-15.24.0",
    "version": "2.0"
  },
  "bufferViews": [
    {
      "buffer": 0,
      "byteLength": 59280,
      "name": "floatBufferViews",
      "target": 34963
    },
    {
      "buffer": 0,
      "byteLength": 33152,
      "byteOffset": 59280,
      "byteStride": 8,
      "name": "floatBufferViews",
      "target": 34962
    },
    {
      "buffer": 0,
      "byteLength": 99456,
      "byteOffset": 92432,
      "byteStride": 12,
      "name": "floatBufferViews",
      "target": 34962
    }
  ],
  "buffers": [
    {
      "byteLength": 191888,
      "uri": "scene.bin"
    }
  ],
  "extensionsUsed": [
    "KHR_materials_specular",
    "KHR_materials_emissive_strength"
  ],
  "images": [
    {
      "uri": "textures/lambert12_baseColor.jpeg"
    },
    {
      "uri": "textures/lambert13_baseColor.jpeg"
    },
    {
      "uri": "textures/lambert10_baseColor.jpeg"
    }
  ],
  "materials": [
    {
      "doubleSided": true,
      "extensions": {
        "KHR_materials_specular": {
          "specularColorFactor": [
            1.0,
            1.0,
            1.0
          ],
          "specularFactor": 0.6872401896843876
        }
      },
      "name": "lambert12",
      "pbrMetallicRoughness": {
        "baseColorFactor": [
          0.9859077665760504,
          0.9859077665760504,
          0.9859077665760504,
          1.0
        ],
        "baseColorTexture": {
          "index": 0
        },
        "roughnessFactor": 0.6
      }
    },
    {
      "alphaMode": "BLEND",
      "doubleSided": true,
      "extensions": {
        "KHR_materials_emissive_strength": {
          "emissiveStrength": 1.0209554924357864
        },
        "KHR_materials_specular": {
          "specularColorFactor": [
            1.0,
            1.0,
            1.0
          ],
          "specularFactor": 0.7664785264107471
        }
      },
      "name": "lambert13",
      "pbrMetallicRoughness": {
        "baseColorFactor": [
          1.0,
          1.0,
          1.0,
          0.9310504565347246
        ],
        "baseColorTexture": {
          "index": 1
        },
        "metallicFactor": 0.05,
        "roughnessFactor": 0.8091453231095561
      }
    },
    {
      "doubleSided": true,
      "emissiveFactor": [
        0.8373390532284241,
        0.7713339936615533,
        0.6354651899394373
      ],
      "extensions": {
        "KHR_materials_emissive_strength": {
          "emissiveStrength": 10.0
        },
        "KHR_materials_specular": {
          "specularColorFactor": [
            1.0,
            1.0,
            1.0
          ],
          "specularFactor": 0.9980982799185673
        }
      },
      "name": "lambert10",
      "pbrMetallicRoughness": {
        "baseColorTexture": {
          "index": 2
        },
        "metallicFactor": 0.0,
        "roughnessFactor": 0.4434299228340505
      }
    }
  ],
  "meshes": [
    {
      "name": "chord_lambert12_0",
      "primitives": [
        {
          "attributes": {
            "NORMAL": 1,
            "POSITION": 0,
            "TEXCOORD_0": 2
          },
          "indices": 3,
          "material": 0,
          "mode": 4
        }
      ]
    },
    {
      "name": "polySurface3_lambert13_0",
      "primitives": [
        {
          "attributes": {
            "NORMAL": 5,
            "POSITION": 4,
            "TEXCOORD_0": 6
          },
          "indices": 7,
          "material": 1,
          "mode": 4
        }
      ]
    },
    {
      "name": "pSphere3_lambert10_0",
      "primitives": [
        {
          "attributes": {
            "NORMAL": 9,
            "POSITION": 8,
            "TEXCOORD_0": 10
          },
          "indices": 11,
          "material": 2,
          "mode": 4
        }
      ]
    }
  ],
  "nodes": [
    {
      "children": [
        1
      ],
      "matrix": [
        1.0,
        0.0,
        0.0,
        0.0,
        0.0,
        2.220446049250313e-16,
        -1.0,
        0.0,
        0.0,
        1.0,
        2.220446049250313e-16,
        0.0,
        0.0,
        0.0,
        0.0,
        1.0
      ],
      "name": "Sketchfab_model"
    },
    {
      "children": [
        2
      ],
      "matrix": [
        1.0,
        0.0,
        0.0,
        0.0,
        0.0,
        0.0,
        1.0,
        0.0,
        0.0,
        -1.0,
        0.0,
        0.0,
        0.0,
        0.0,
        0.0,
        1.0
      ],
      "name": "c9ef90a0bfc348dbb04a7f785edf5645.fbx"
    },
    {
      "children": [
        3
      ],
      "name": "RootNode"
    },
    {
      "children": [
        4,
        6,
        8
      ],
      "matrix": [
        0.009999999776482582,
        0.0,
        0.0,
        0.0,
        0.0,
        0.009999999776482582,
        0.0,
        0.0,
        0.0,
        0.0,
        0.009999999776482582,
        0.0,
        0.0,
        0.0,
        0.0,
        1.0
      ],
      "name": "caroline_double"
    },
    {
      "children": [
        5
      ],
      "name": "chord"
    },
    {
      "mesh": 0,
      "name": "chord_lambert12_0"
    },
    {
      "children": [
        7
      ],
      "name": "polySurface3"
    },
    {
      "mesh": 1,
      "name": "polySurface3_lambert13_0"
    },
    {
      "children": [
        9
      ],
      "matrix": [
        1.0,
        0.0,
        0.0,
        0.0,
        0.0,
        1.0,
        0.0,
        0.0,
        0.0,
        0.0,
        1.0,
        0.0,
        0.0,
        -1.0443315505981445,
        0.0,
        1.0
      ],
      "name": "pSphere3"
    },
    {
      "mesh": 2,
      "name": "pSphere3_lambert10_0"
    }
  ],
  "samplers": [
    {
      "magFilter": 9729,
      "minFilter": 9987,
      "wrapS": 10497,
      "wrapT": 10497
    }
  ],
  "scene": 0,
  "scenes": [
    {
      "name": "Sketchfab_Scene",
      "nodes": [
        0
      ]
    }
  ],
  "textures": [
    {
      "sampler": 0,
      "source": 0
    },
    {
      "sampler": 0,
      "source": 1
    },
    {
      "sampler": 0,
      "source": 2
    }
  ]
}
