{
  "accessors": [
    {
      "bufferView": 2,
      "componentType": 5126,
      "count": 54419,
      "max": [
        0.23601865768432617,
        0.22660917043685913,
        0.11447369307279587
      ],
      "min": [
        -0.2495564967393875,
        -0.2066674828529358,
        -0.13955548405647278
      ],
      "type": "VEC3"
    },
    {
      "bufferView": 2,
      "byteOffset": 653028,
      "componentType": 5126,
      "count": 54419,
      "max": [
        0.9997646808624268,
        0.999881386756897,
        0.9999947547912598
      ],
      "min": [
        -0.9998676180839539,
        -0.9999933838844299,
        -0.9999673366546631
      ],
      "type": "VEC3"
    },
    {
      "bufferView": 1,
      "componentType": 5126,
      "count": 54419,
      "max": [
        0.596923828125,
        0.999267578125
      ],
      "min": [
        0.000732421875,
        0.434326171875
      ],
      "type": "VEC2"
    },
    {
      "bufferView": 0,
      "componentType": 5125,
      "count": 150000,
      "type": "SCALAR"
    }
  ],
  "asset": {
    "extras": {
      "author": "alban (https://sketchfab.com/alban)",
      "license": "CC-BY-4.0 (http://creativecommons.org/licenses/by/4.0/)",
      "source": "https://sketchfab.com/3d-models/sculpture-73237d9a4b5e4472aaf9647394dc0918",
      "title": "Sculpture"
    },
    "generator": "Sketchfab-12.65.0",
    "version": "2.0"
  },
  "bufferViews": [
    {
      "buffer": 0,
      "byteLength": 600000,
      "name": "floatBufferViews",
      "target": 34963
    },
    {
      "buffer": 0,
      "byteLength": 435352,
      "byteOffset": 600000,
      "byteStride": 8,
      "name": "floatBufferViews",
      "target": 34962
    },
    {
      "buffer": 0,
      "byteLength": 1306056,
      "byteOffset": 1035352,
      "byteStride": 12,
      "name": "floatBufferViews",
      "target": 34962
    }
  ],
  "buffers": [
    {
      "byteLength": 2341408,
      "uri": "scene.bin"
    }
  ],
  "images": [
    {
      "uri": "textures/material_0_baseColor.jpeg"
    }
  ],
  "materials": [
    {
      "doubleSided": true,
      "name": "material_0",
      "pbrMetallicRoughness": {
        "baseColorTexture": {
          "index": 0
        },
        "metallicFactor": 0.0,
        "roughnessFactor": 0.6
      }
    }
  ],
  "meshes": [
    {
      "name": "Object_0",
      "primitives": [
        {
          "attributes": {
            "NORMAL": 1,
            "POSITION": 0,
            "TEXCOORD_0": 2
          },
          "indices": 3,
          "material": 0,
          "mode": 4
        }
      ]
    }
  ],
  "nodes": [
    {
      "children": [
        1
      ],
      "matrix": [
        0.06491298228502274,
        -0.7281649708747865,
        0.6823211312294005,
        0.0,
        0.060585927218198776,
        -0.6796259880065917,
        -0.7310525774955751,
        0.0,
        0.9960500001907349,
        0.08879386633634567,
        1.9716198970419912e-17,
        0.0,
        -0.00021430780179798603,
        0.009730788879096508,
        0.0019366275519132636,
        1.0
      ],
      "name": "Sketchfab_model"
    },
    {
      "children": [
        2
      ],
      "name": "model_mesh.obj.cleaner.materialmerger.gles"
    },
    {
      "mesh": 0,
      "name": "Object_2"
    }
  ],
  "samplers": [
    {
      "magFilter": 9729,
      "minFilter": 9987,
      "wrapS": 10497,
      "wrapT": 10497
    }
  ],
  "scene": 0,
  "scenes": [
    {
      "name": "Sketchfab_Scene",
      "nodes": [
        0
      ]
    }
  ],
  "textures": [
    {
      "sampler": 0,
      "source": 0
    }
  ]
}
