{
  "accessors": [
    {
      "bufferView": 2,
      "componentType": 5126,
      "count": 65532,
      "max": [
        0.8729701638221741,
        7.355027198791504,
        0.8245185613632202
      ],
      "min": [
        -1.165062427520752,
        2.844311237335205,
        -0.5320571064949036
      ],
      "type": "VEC3"
    },
    {
      "bufferView": 2,
      "byteOffset": 786384,
      "componentType": 5126,
      "count": 65532,
      "max": [
        0.9999858736991882,
        0.9999237060546875,
        0.9999732375144958
      ],
      "min": [
        -0.9999765753746033,
        -0.999996542930603,
        -0.9999912977218628
      ],
      "type": "VEC3"
    },
    {
      "bufferView": 1,
      "componentType": 5126,
      "count": 65532,
      "max": [
        0.99951171875,
        0.9810224175453186
      ],
      "min": [
        0.0004883159417659044,
        0.00048828125
      ],
      "type": "VEC2"
    },
    {
      "bufferView": 1,
      "byteOffset": 524256,
      "componentType": 5126,
      "count": 65532,
      "max": [
        0.99951171875,
        0.9810224175453186
      ],
      "min": [
        0.0004883159417659044,
        0.00048828125
      ],
      "type": "VEC2"
    },
    {
      "bufferView": 1,
      "byteOffset": 1048512,
      "componentType": 5126,
      "count": 65532,
      "max": [
        0.99951171875,
        0.9810224175453186
      ],
      "min": [
        0.0004883159417659044,
        0.00048828125
      ],
      "type": "VEC2"
    },
    {
      "bufferView": 1,
      "byteOffset": 1572768,
      "componentType": 5126,
      "count": 65532,
      "max": [
        0.99951171875,
        0.9810224175453186
      ],
      "min": [
        0.0004883159417659044,
        0.00048828125
      ],
      "type": "VEC2"
    },
    {
      "bufferView": 0,
      "componentType": 5125,
      "count": 216198,
      "type": "SCALAR"
    },
    {
      "bufferView": 2,
      "byteOffset": 1572768,
      "componentType": 5126,
      "count": 35946,
      "max": [
        0.8752523064613342,
        7.353555202484131,
        0.7422100901603699
      ],
      "min": [
        -1.165062427520752,
        2.844370126724243,
        -0.5125430822372437
      ],
      "type": "VEC3"
    },
    {
      "bufferView": 2,
      "byteOffset": 2004120,
      "componentType": 5126,
      "count": 35946,
      "max": [
        0.9999645948410034,
        0.9995400309562683,
        0.9999063014984131
      ],
      "min": [
        -0.9999865889549255,
        -0.9996440410614014,
        -0.9999215602874756
      ],
      "type": "VEC3"
    },
    {
      "bufferView": 1,
      "byteOffset": 2097024,
      "componentType": 5126,
      "count": 35946,
      "max": [
        0.99951171875,
        0.9810096025466919
      ],
      "min": [
        0.00048828125,
        0.0004893188597634435
      ],
      "type": "VEC2"
    },
    {
      "bufferView": 1,
      "byteOffset": 2384592,
      "componentType": 5126,
      "count": 35946,
      "max": [
        0.99951171875,
        0.9810096025466919
      ],
      "min": [
        0.00048828125,
        0.0004893188597634435
      ],
      "type": "VEC2"
    },
    {
      "bufferView": 1,
      "byteOffset": 2672160,
      "componentType": 5126,
      "count": 35946,
      "max": [
        0.99951171875,
        0.9810096025466919
      ],
      "min": [
        0.00048828125,
        0.0004893188597634435
      ],
      "type": "VEC2"
    },
    {
      "bufferView": 1,
      "byteOffset": 2959728,
      "componentType": 5126,
      "count": 35946,
      "max": [
        0.99951171875,
        0.9810096025466919
      ],
      "min": [
        0.00048828125,
        0.0004893188597634435
      ],
      "type": "VEC2"
    },
    {
      "bufferView": 0,
      "byteOffset": 864792,
      "componentType": 5125,
      "count": 57366,
      "type": "SCALAR"
    },
    {
      "bufferView": 2,
      "byteOffset": 2435472,
      "componentType": 5126,
      "count": 524,
      "max": [
        0.9144763946533203,
        2.8443872928619385,
        0.9144766330718994
      ],
      "min": [
        -0.9144768714904785,
        0.01118612289428711,
        -0.9144766330718994
      ],
      "type": "VEC3"
    },
    {
      "bufferView": 2,
      "byteOffset": 2441760,
      "componentType": 5126,
      "count": 524,
      "max": [
        1.0,
        1.0,
        1.0
      ],
      "min": [
        -1.0,
        -0.9955711364746094,
        -1.0
      ],
      "type": "VEC3"
    },
    {
      "bufferView": 3,
      "componentType": 5126,
      "count": 524,
      "max": [
        1.0,
        0.9990829229354858,
        1.0,
        1.0
      ],
      "min": [
        -1.0,
        -0.9959771633148193,
        -1.0,
        1.0
      ],
      "type": "VEC4"
    },
    {
      "bufferView": 1,
      "byteOffset": 3247296,
      "componentType": 5126,
      "count": 524,
      "max": [
        0.99951171875,
        0.9246851205825806
      ],
      "min": [
        0.00048828125,
        0.00048828125
      ],
      "type": "VEC2"
    },
    {
      "bufferView": 1,
      "byteOffset": 3251488,
      "componentType": 5126,
      "count": 524,
      "max": [
        0.99951171875,
        0.9246851205825806
      ],
      "min": [
        0.00048828125,
        0.00048828125
      ],
      "type": "VEC2"
    },
    {
      "bufferView": 1,
      "byteOffset": 3255680,
      "componentType": 5126,
      "count": 524,
      "max": [
        0.99951171875,
        0.9246851205825806
      ],
      "min": [
        0.00048828125,
        0.00048828125
      ],
      "type": "VEC2"
    },
    {
      "bufferView": 1,
      "byteOffset": 3259872,
      "componentType": 5126,
      "count": 524,
      "max": [
        0.99951171875,
        0.9246851205825806
      ],
      "min": [
        0.00048828125,
        0.00048828125
      ],
      "type": "VEC2"
    },
    {
      "bufferView": 0,
      "byteOffset": 1094256,
      "componentType": 5125,
      "count": 1014,
      "type": "SCALAR"
    }
  ],
  "asset": {
    "extras": {
      "author": "Samuel Francis Johnson (Oneironauticus) (https://sketchfab.com/oneironauticus)",
      "license": "CC-BY-4.0 (http://creativecommons.org/licenses/by/4.0/)",
      "source": "https://sketchfab.com/3d-models/apoll-sculpture-876a2ffc8916434ea866affc332447a2",
      "title": "Apoll Sculpture"
    },
    "generator": "Sketchfab-15.49.0",
    "version": "2.0"
  },
  "bufferViews": [
    {
      "buffer": 0,
      "byteLength": 1098312,
      "name": "floatBufferViews",
      "target": 34963
    },
    {
      "buffer": 0,
      "byteLength": 3264064,
      "byteOffset": 1098312,
      "byteStride": 8,
      "name": "floatBufferViews",
      "target": 34962
    },
    {
      "buffer": 0,
      "byteLength": 2448048,
      "byteOffset": 4362376,
      "byteStride": 12,
      "name": "floatBufferViews",
      "target": 34962
    },
    {
      "buffer": 0,
      "byteLength": 8384,
      "byteOffset": 6810424,
      "byteStride": 16,
      "name": "floatBufferViews",
      "target": 34962
    }
  ],
  "buffers": [
    {
      "byteLength": 6818808,
      "uri": "scene.bin"
    }
  ],
  "extensionsUsed": [
    "KHR_materials_specular"
  ],
  "images": [
    {
      "uri": "textures/Material.001_baseColor.jpeg"
    },
    {
      "uri": "textures/Material.001_metallicRoughness.png"
    },
    {
      "uri": "textures/PlintheMaterial_baseColor.jpeg"
    },
    {
      "uri": "textures/PlintheMaterial_metallicRoughness.png"
    },
    {
      "uri": "textures/PlintheMaterial_normal.jpeg"
    }
  ],
  "materials": [
    {
      "doubleSided": true,
      "extensions": {
        "KHR_materials_specular": {
          "specularColorFactor": [
            1.0,
            1.0,
            1.0
          ],
          "specularFactor": 0.7225297039989421
        }
      },
      "name": "Material.001",
      "pbrMetallicRoughness": {
        "baseColorTexture": {
          "index": 0
        },
        "metallicRoughnessTexture": {
          "index": 1,
          "texCoord": 1
        }
      }
    },
    {
      "doubleSided": true,
      "extensions": {
        "KHR_materials_specular": {
          "specularColorFactor": [
            1.0,
            1.0,
            1.0
          ],
          "specularFactor": 0.23139840193430172
        }
      },
      "name": "PlintheMaterial",
      "normalTexture": {
        "index": 4
      },
      "pbrMetallicRoughness": {
        "baseColorTexture": {
          "index": 2
        },
        "metallicFactor": 0.0,
        "metallicRoughnessTexture": {
          "index": 3
        }
      }
    }
  ],
  "meshes": [
    {
      "name": "Object_0",
      "primitives": [
        {
          "attributes": {
            "NORMAL": 1,
            "POSITION": 0,
            "TEXCOORD_0": 2,
            "TEXCOORD_1": 3,
            "TEXCOORD_2": 4,
            "TEXCOORD_3": 5
          },
          "indices": 6,
          "material": 0,
          "mode": 4
        }
      ]
    },
    {
      "name": "Object_1",
      "primitives": [
        {
          "attributes": {
            "NORMAL": 8,
            "POSITION": 7,
            "TEXCOORD_0": 9,
            "TEXCOORD_1": 10,
            "TEXCOORD_2": 11,
            "TEXCOORD_3": 12
          },
          "indices": 13,
          "material": 0,
          "mode": 4
        }
      ]
    },
    {
      "name": "Object_2",
      "primitives": [
        {
          "attributes": {
            "NORMAL": 15,
            "POSITION": 14,
            "TANGENT": 16,
            "TEXCOORD_0": 17,
            "TEXCOORD_1": 18,
            "TEXCOORD_2": 19,
            "TEXCOORD_3": 20
          },
          "indices": 21,
          "material": 1,
          "mode": 4
        }
      ]
    }
  ],
  "nodes": [
    {
      "children": [
        1
      ],
      "matrix": [
        1.0,
        0.0,
        0.0,
        0.0,
        0.0,
        2.220446049250313e-16,
        -1.0,
        0.0,
        0.0,
        1.0,
        2.220446049250313e-16,
        0.0,
        0.0,
        0.0,
        0.0,
        1.0
      ],
      "name": "Sketchfab_model"
    },
    {
      "children": [
        2
      ],
      "name": "root"
    },
    {
      "children": [
        3,
        6
      ],
      "matrix": [
        1.0,
        0.0,
        0.0,
        0.0,
        0.0,
        2.220446049250313e-16,
        1.0,
        0.0,
        0.0,
        -1.0,
        2.220446049250313e-16,
        0.0,
        0.0,
        0.0,
        0.0,
        1.0
      ],
      "name": "GLTF_SceneRootNode"
    },
    {
      "children": [
        4,
        5
      ],
      "name": "Apoll-Skulptur_0"
    },
    {
      "mesh": 0,
      "name": "Object_4"
    },
    {
      "mesh": 1,
      "name": "Object_5"
    },
    {
      "children": [
        7
      ],
      "name": "SkulpturPlinthe_1"
    },
    {
      "mesh": 2,
      "name": "Object_7"
    }
  ],
  "samplers": [
    {
      "magFilter": 9729,
      "minFilter": 9987,
      "wrapS": 10497,
      "wrapT": 10497
    }
  ],
  "scene": 0,
  "scenes": [
    {
      "name": "Sketchfab_Scene",
      "nodes": [
        0
      ]
    }
  ],
  "textures": [
    {
      "sampler": 0,
      "source": 0
    },
    {
      "sampler": 0,
      "source": 1
    },
    {
      "sampler": 0,
      "source": 2
    },
    {
      "sampler": 0,
      "source": 3
    },
    {
      "sampler": 0,
      "source": 4
    }
  ]
}
