{
  "accessors": [
    {
      "bufferView": 2,
      "componentType": 5126,
      "count": 1076,
      "max": [
        0.03742288425564766,
        0.03895537182688713,
        0.03742288425564766
      ],
      "min": [
        -0.03742288425564766,
        -0.0009680186631157994,
        -0.03742288425564766
      ],
      "type": "VEC3"
    },
    {
      "bufferView": 2,
      "byteOffset": 12912,
      "componentType": 5126,
      "count": 1076,
      "max": [
        1.0,
        0.0,
        1.0
      ],
      "min": [
        -1.0,
        -1.0,
        -1.0
      ],
      "type": "VEC3"
    },
    {
      "bufferView": 1,
      "componentType": 5126,
      "count": 1076,
      "max": [
        0.9924811124801636,
        0.860123336315155
      ],
      "min": [
        0.007518881931900978,
        0.006571523379534483
      ],
      "type": "VEC2"
    },
    {
      "bufferView": 0,
      "componentType": 5125,
      "count": 2430,
      "type": "SCALAR"
    },
    {
      "bufferView": 2,
      "byteOffset": 25824,
      "componentType": 5126,
      "count": 289,
      "max": [
        0.01825992576777935,
        0.015216086059808731,
        0.01825992576777935
      ],
      "min": [
        -0.01825992576777935,
        0.011916732415556908,
        -0.01825992576777935
      ],
      "type": "VEC3"
    },
    {
      "bufferView": 2,
      "byteOffset": 29292,
      "componentType": 5126,
      "count": 289,
      "max": [
        0.3427010476589203,
        -0.9394393563270569,
        0.3427010476589203
      ],
      "min": [
        -0.3427010476589203,
        -1.0,
        -0.3427010476589203
      ],
      "type": "VEC3"
    },
    {
      "bufferView": 1,
      "byteOffset": 8608,
      "componentType": 5126,
      "count": 289,
      "max": [
        0.6878982782363892,
        0.9944707155227661
      ],
      "min": [
        0.4737884998321533,
        0.810161292552948
      ],
      "type": "VEC2"
    },
    {
      "bufferView": 0,
      "byteOffset": 9720,
      "componentType": 5125,
      "count": 1656,
      "type": "SCALAR"
    }
  ],
  "asset": {
    "extras": {
      "author": "Marc Sawyer (https://sketchfab.com/whitewashstudio)",
      "license": "CC-BY-4.0 (http://creativecommons.org/licenses/by/4.0/)",
      "source": "https://sketchfab.com/3d-models/lighting-fixture-3d-recessed-light-aa69a71e7cb34ecbaa83bd1dd50aad08",
      "title": "Lighting Fixture - 3D Recessed Light"
    },
    "generator": "Sketchfab-12.66.0",
    "version": "2.0"
  },
  "bufferViews": [
    {
      "buffer": 0,
      "byteLength": 16344,
      "name": "floatBufferViews",
      "target": 34963
    },
    {
      "buffer": 0,
      "byteLength": 10920,
      "byteOffset": 16344,
      "byteStride": 8,
      "name": "floatBufferViews",
      "target": 34962
    },
    {
      "buffer": 0,
      "byteLength": 32760,
      "byteOffset": 27264,
      "byteStride": 12,
      "name": "floatBufferViews",
      "target": 34962
    }
  ],
  "buffers": [
    {
      "byteLength": 60024,
      "uri": "scene.bin"
    }
  ],
  "materials": [
    {
      "doubleSided": true,
      "name": "CanLight-Trim",
      "pbrMetallicRoughness": {
        "metallicFactor": 0.0,
        "roughnessFactor": 0.7763932023
      }
    },
    {
      "doubleSided": true,
      "emissiveFactor": [
        1.0,
        1.0,
        1.0
      ],
      "name": "CanLight-Emissive",
      "pbrMetallicRoughness": {
        "baseColorFactor": [
          1.0,
          0.8941180000000001,
          0.5098039999999998,
          1.0
        ],
        "metallicFactor": 0.0,
        "roughnessFactor": 0.7189111337
      }
    }
  ],
  "meshes": [
    {
      "name": "Object_0",
      "primitives": [
        {
          "attributes": {
            "NORMAL": 1,
            "POSITION": 0,
            "TEXCOORD_0": 2
          },
          "indices": 3,
          "material": 0,
          "mode": 4
        }
      ]
    },
    {
      "name": "Object_1",
      "primitives": [
        {
          "attributes": {
            "NORMAL": 5,
            "POSITION": 4,
            "TEXCOORD_0": 6
          },
          "indices": 7,
          "material": 1,
          "mode": 4
        }
      ]
    }
  ],
  "nodes": [
    {
      "children": [
        1
      ],
      "matrix": [
        1.0,
        0.0,
        0.0,
        0.0,
        0.0,
        2.220446049250313e-16,
        -1.0,
        0.0,
        0.0,
        1.0,
        2.220446049250313e-16,
        0.0,
        0.0,
        0.0,
        0.0,
        1.0
      ],
      "name": "Sketchfab_model"
    },
    {
      "children": [
        2
      ],
      "name": "root"
    },
    {
      "children": [
        3
      ],
      "matrix": [
        1.0,
        0.0,
        0.0,
        0.0,
        0.0,
        2.220446049250313e-16,
        1.0,
        0.0,
        0.0,
        -1.0,
        2.220446049250313e-16,
        0.0,
        0.0,
        0.0,
        0.0,
        1.0
      ],
      "name": "GLTF_SceneRootNode"
    },
    {
      "children": [
        4,
        5
      ],
      "name": "Canlight_0"
    },
    {
      "mesh": 0,
      "name": "Object_4"
    },
    {
      "mesh": 1,
      "name": "Object_5"
    }
  ],
  "scene": 0,
  "scenes": [
    {
      "name": "Sketchfab_Scene",
      "nodes": [
        0
      ]
    }
  ]
}
