{
  "accessors": [
    {
      "bufferView": 2,
      "componentType": 5126,
      "count": 236,
      "max": [
        39.690162658691406,
        3.603241443634033,
        43.67624282836914
      ],
      "min": [
        -39.68996047973633,
        -1.3470722436904907,
        -43.676631927490234
      ],
      "type": "VEC3"
    },
    {
      "bufferView": 2,
      "byteOffset": 2832,
      "componentType": 5126,
      "count": 236,
      "max": [
        0.999948263168335,
        1.0,
        0.9999467134475708
      ],
      "min": [
        -0.9999475479125977,
        -0.9999993443489075,
        -0.9999484419822693
      ],
      "type": "VEC3"
    },
    {
      "bufferView": 3,
      "componentType": 5126,
      "count": 236,
      "max": [
        0.9999995827674866,
        0.9999485015869141,
        0.9999988079071045,
        1.0
      ],
      "min": [
        -1.0,
        -0.7072333693504333,
        -0.707176148891449,
        -1.0
      ],
      "type": "VEC4"
    },
    {
      "bufferView": 1,
      "componentType": 5126,
      "count": 236,
      "max": [
        0.6720813512802124,
        0.9102026224136353
      ],
      "min": [
        0.2209457904100418,
        0.015706369653344154
      ],
      "type": "VEC2"
    },
    {
      "bufferView": 0,
      "componentType": 5125,
      "count": 876,
      "type": "SCALAR"
    },
    {
      "bufferView": 2,
      "byteOffset": 5664,
      "componentType": 5126,
      "count": 236,
      "max": [
        96.65328216552734,
        3.603241443634033,
        43.67624282836914
      ],
      "min": [
        42.874603271484375,
        -1.3470722436904907,
        -43.676631927490234
      ],
      "type": "VEC3"
    },
    {
      "bufferView": 2,
      "byteOffset": 8496,
      "componentType": 5126,
      "count": 236,
      "max": [
        0.9999482035636902,
        1.0,
        0.9999467134475708
      ],
      "min": [
        -0.9999475479125977,
        -0.9999993443489075,
        -0.9999483227729797
      ],
      "type": "VEC3"
    },
    {
      "bufferView": 3,
      "byteOffset": 3776,
      "componentType": 5126,
      "count": 236,
      "max": [
        0.9999998211860657,
        0.9999485611915588,
        0.7072683572769165,
        1.0
      ],
      "min": [
        -1.0,
        -0.9999476671218872,
        -0.7073561549186707,
        -1.0
      ],
      "type": "VEC4"
    },
    {
      "bufferView": 1,
      "byteOffset": 1888,
      "componentType": 5126,
      "count": 236,
      "max": [
        0.9800971150398254,
        0.9095532894134521
      ],
      "min": [
        0.500597357749939,
        0.015706369653344154
      ],
      "type": "VEC2"
    },
    {
      "bufferView": 0,
      "byteOffset": 3504,
      "componentType": 5125,
      "count": 876,
      "type": "SCALAR"
    },
    {
      "bufferView": 2,
      "byteOffset": 11328,
      "componentType": 5126,
      "count": 236,
      "max": [
        -42.01679611206055,
        3.603241443634033,
        43.67624282836914
      ],
      "min": [
        -95.79546356201172,
        -1.3470722436904907,
        -43.676631927490234
      ],
      "type": "VEC3"
    },
    {
      "bufferView": 2,
      "byteOffset": 14160,
      "componentType": 5126,
      "count": 236,
      "max": [
        0.999948263168335,
        1.0,
        0.9999465346336365
      ],
      "min": [
        -0.9999475479125977,
        -0.9999995231628418,
        -0.9999485015869141
      ],
      "type": "VEC3"
    },
    {
      "bufferView": 3,
      "byteOffset": 7552,
      "componentType": 5126,
      "count": 236,
      "max": [
        0.9999997615814209,
        0.9999485015869141,
        0.7071051001548767,
        1.0
      ],
      "min": [
        -1.0,
        -0.9999476671218872,
        -0.7072647213935852,
        -1.0
      ],
      "type": "VEC4"
    },
    {
      "bufferView": 1,
      "byteOffset": 3776,
      "componentType": 5126,
      "count": 236,
      "max": [
        0.9822673201560974,
        0.9842936992645264
      ],
      "min": [
        0.026001259684562683,
        0.5104144811630249
      ],
      "type": "VEC2"
    },
    {
      "bufferView": 0,
      "byteOffset": 7008,
      "componentType": 5125,
      "count": 876,
      "type": "SCALAR"
    }
  ],
  "asset": {
    "extras": {
      "author": "Misam Ali Rizvi (https://sketchfab.com/MisamAliRizvi)",
      "license": "CC-BY-4.0 (http://creativecommons.org/licenses/by/4.0/)",
      "source": "https://sketchfab.com/3d-models/frames-8393cd4684e14dc58ee9b469e530a221",
      "title": "Frames"
    },
    "generator": "Sketchfab-15.37.0",
    "version": "2.0"
  },
  "bufferViews": [
    {
      "buffer": 0,
      "byteLength": 10512,
      "name": "floatBufferViews",
      "target": 34963
    },
    {
      "buffer": 0,
      "byteLength": 5664,
      "byteOffset": 10512,
      "byteStride": 8,
      "name": "floatBufferViews",
      "target": 34962
    },
    {
      "buffer": 0,
      "byteLength": 16992,
      "byteOffset": 16176,
      "byteStride": 12,
      "name": "floatBufferViews",
      "target": 34962
    },
    {
      "buffer": 0,
      "byteLength": 11328,
      "byteOffset": 33168,
      "byteStride": 16,
      "name": "floatBufferViews",
      "target": 34962
    }
  ],
  "buffers": [
    {
      "byteLength": 44496,
      "uri": "scene.bin"
    }
  ],
  "extensionsUsed": [
    "KHR_materials_specular"
  ],
  "images": [
    {
      "uri": "textures/Frames_baseColor.jpeg"
    },
    {
      "uri": "textures/Frames_metallicRoughness.png"
    },
    {
      "uri": "textures/Frames_normal.png"
    }
  ],
  "materials": [
    {
      "doubleSided": true,
      "extensions": {
        "KHR_materials_specular": {
          "specularColorFactor": [
            1.0,
            1.0,
            1.0
          ],
          "specularFactor": 1.0
        }
      },
      "name": "Frames",
      "normalTexture": {
        "index": 2,
        "scale": 0.2544769660250393
      },
      "pbrMetallicRoughness": {
        "baseColorTexture": {
          "index": 0
        },
        "metallicRoughnessTexture": {
          "index": 1
        }
      }
    }
  ],
  "meshes": [
    {
      "name": "Frame_Middle_Frames_0",
      "primitives": [
        {
          "attributes": {
            "NORMAL": 1,
            "POSITION": 0,
            "TANGENT": 2,
            "TEXCOORD_0": 3
          },
          "indices": 4,
          "material": 0,
          "mode": 4
        }
      ]
    },
    {
      "name": "Frame_Right_Frames_0",
      "primitives": [
        {
          "attributes": {
            "NORMAL": 6,
            "POSITION": 5,
            "TANGENT": 7,
            "TEXCOORD_0": 8
          },
          "indices": 9,
          "material": 0,
          "mode": 4
        }
      ]
    },
    {
      "name": "Frame_Left_Frames_0",
      "primitives": [
        {
          "attributes": {
            "NORMAL": 11,
            "POSITION": 10,
            "TANGENT": 12,
            "TEXCOORD_0": 13
          },
          "indices": 14,
          "material": 0,
          "mode": 4
        }
      ]
    }
  ],
  "nodes": [
    {
      "children": [
        1
      ],
      "matrix": [
        1.0,
        -2.8327693431939995e-16,
        2.8327693431939985e-16,
        0.0,
        -2.832769343193999e-16,
        -2.2204460492503126e-16,
        1.0,
        0.0,
        -2.832769343193999e-16,
        -1.0,
        -2.2204460492503136e-16,
        0.0,
        0.0,
        0.0,
        0.0,
        1.0
      ],
      "name": "Sketchfab_model"
    },
    {
      "children": [
        2
      ],
      "matrix": [
        0.009999999776482582,
        0.0,
        0.0,
        0.0,
        0.0,
        -0.009999999776482582,
        0.0,
        0.0,
        0.0,
        0.0,
        -0.009999999776482582,
        0.0,
        0.0,
        0.0,
        0.0,
        1.0
      ],
      "name": "e97a213f521049a69b34552a1a18367f.fbx"
    },
    {
      "children": [
        3
      ],
      "name": "RootNode"
    },
    {
      "children": [
        4,
        7,
        10
      ],
      "matrix": [
        1.0,
        0.0,
        0.0,
        0.0,
        0.0,
        1.0,
        0.0,
        0.0,
        0.0,
        0.0,
        1.0,
        0.0,
        0.0001068115234375,
        0.0,
        0.0,
        1.0
      ],
      "name": "Frames"
    },
    {
      "children": [
        5
      ],
      "matrix": [
        1.0,
        0.0,
        0.0,
        0.0,
        0.0,
        1.0,
        0.0,
        0.0,
        0.0,
        0.0,
        1.0,
        0.0,
        -5.7220458984375e-06,
        -5.435943603515625e-05,
        -0.866668701171875,
        1.0
      ],
      "name": "Frame_Middle"
    },
    {
      "children": [
        6
      ],
      "matrix": [
        1.0,
        0.0,
        -0.0,
        0.0,
        0.0,
        1.0,
        0.0,
        0.0,
        0.0,
        0.0,
        1.0,
        0.0,
        -0.0001010894775390625,
        -3.6030986309051514,
        -42.809574127197266,
        1.0
      ],
      "name": "Object_5"
    },
    {
      "mesh": 0,
      "name": "Frame_Middle_Frames_0"
    },
    {
      "children": [
        8
      ],
      "matrix": [
        1.0,
        0.0,
        0.0,
        0.0,
        0.0,
        1.0,
        0.0,
        0.0,
        0.0,
        0.0,
        1.0,
        0.0,
        69.76383972167969,
        -5.435943603515625e-05,
        -0.866668701171875,
        1.0
      ],
      "name": "Frame_Right"
    },
    {
      "children": [
        9
      ],
      "matrix": [
        1.0,
        0.0,
        -0.0,
        0.0,
        0.0,
        1.0,
        0.0,
        0.0,
        0.0,
        0.0,
        1.0,
        0.0,
        -69.76394653320313,
        -3.6030986309051514,
        -42.809574127197266,
        1.0
      ],
      "name": "Object_8"
    },
    {
      "mesh": 1,
      "name": "Frame_Right_Frames_0"
    },
    {
      "children": [
        11
      ],
      "matrix": [
        1.0,
        0.0,
        0.0,
        0.0,
        0.0,
        1.0,
        0.0,
        0.0,
        0.0,
        0.0,
        1.0,
        0.0,
        -68.90623474121094,
        -5.435943603515625e-05,
        -0.866668701171875,
        1.0
      ],
      "name": "Frame_Left"
    },
    {
      "children": [
        12
      ],
      "matrix": [
        1.0,
        0.0,
        -0.0,
        0.0,
        0.0,
        1.0,
        0.0,
        0.0,
        0.0,
        0.0,
        1.0,
        0.0,
        68.9061279296875,
        -3.6030986309051514,
        -42.809574127197266,
        1.0
      ],
      "name": "Object_11"
    },
    {
      "mesh": 2,
      "name": "Frame_Left_Frames_0"
    }
  ],
  "samplers": [
    {
      "magFilter": 9729,
      "minFilter": 9987,
      "wrapS": 10497,
      "wrapT": 10497
    }
  ],
  "scene": 0,
  "scenes": [
    {
      "name": "Sketchfab_Scene",
      "nodes": [
        0
      ]
    }
  ],
  "textures": [
    {
      "sampler": 0,
      "source": 0
    },
    {
      "sampler": 0,
      "source": 1
    },
    {
      "sampler": 0,
      "source": 2
    }
  ]
}
