{
  "accessors": [
    {
      "bufferView": 2,
      "componentType": 5126,
      "count": 6720,
      "max": [
        0.3196157217025757,
        0.3196157217025757,
        0.3081873655319214
      ],
      "min": [
        -0.3196157217025757,
        -0.3196157217025757,
        0.0
      ],
      "type": "VEC3"
    },
    {
      "bufferView": 2,
      "byteOffset": 80640,
      "componentType": 5126,
      "count": 6720,
      "max": [
        0.9904032349586487,
        0.9904033541679382,
        0.9999969601631165
      ],
      "min": [
        -0.9904032945632935,
        -0.9904031753540039,
        -0.9999969601631165
      ],
      "type": "VEC3"
    },
    {
      "bufferView": 1,
      "componentType": 5126,
      "count": 6720,
      "max": [
        0.0,
        0.0
      ],
      "min": [
        0.0,
        0.0
      ],
      "type": "VEC2"
    },
    {
      "bufferView": 0,
      "componentType": 5125,
      "count": 37440,
      "type": "SCALAR"
    },
    {
      "bufferView": 2,
      "byteOffset": 161280,
      "componentType": 5126,
      "count": 960,
      "max": [
        0.30777257680892944,
        0.30777257680892944,
        0.3081873655319214
      ],
      "min": [
        -0.30777257680892944,
        -0.30777257680892944,
        0.0
      ],
      "type": "VEC3"
    },
    {
      "bufferView": 2,
      "byteOffset": 172800,
      "componentType": 5126,
      "count": 960,
      "max": [
        1.0,
        1.0,
        0.0
      ],
      "min": [
        -1.0,
        -1.0,
        0.0
      ],
      "type": "VEC3"
    },
    {
      "bufferView": 1,
      "byteOffset": 53760,
      "componentType": 5126,
      "count": 960,
      "max": [
        0.0,
        0.0
      ],
      "min": [
        0.0,
        0.0
      ],
      "type": "VEC2"
    },
    {
      "bufferView": 0,
      "byteOffset": 149760,
      "componentType": 5125,
      "count": 2880,
      "type": "SCALAR"
    },
    {
      "bufferView": 2,
      "byteOffset": 184320,
      "componentType": 5126,
      "count": 2648,
      "max": [
        0.30128344893455505,
        0.29211437702178955,
        0.6623829007148743
      ],
      "min": [
        -0.30128347873687744,
        -0.2921142578125,
        0.019501272588968277
      ],
      "type": "VEC3"
    },
    {
      "bufferView": 2,
      "byteOffset": 216096,
      "componentType": 5126,
      "count": 2648,
      "max": [
        0.9835994839668274,
        0.9959893226623535,
        0.9624893069267273
      ],
      "min": [
        -0.9835997223854065,
        -0.9959897398948669,
        -0.962489128112793
      ],
      "type": "VEC3"
    },
    {
      "bufferView": 1,
      "byteOffset": 61440,
      "componentType": 5126,
      "count": 2648,
      "max": [
        1.0,
        1.0
      ],
      "min": [
        0.0,
        0.0
      ],
      "type": "VEC2"
    },
    {
      "bufferView": 0,
      "byteOffset": 161280,
      "componentType": 5125,
      "count": 11856,
      "type": "SCALAR"
    },
    {
      "bufferView": 2,
      "byteOffset": 247872,
      "componentType": 5126,
      "count": 572,
      "max": [
        0.05405673384666443,
        0.05405673384666443,
        0.01430421695113182
      ],
      "min": [
        -0.05405673384666443,
        -0.05405673384666443,
        -0.01430421695113182
      ],
      "type": "VEC3"
    },
    {
      "bufferView": 2,
      "byteOffset": 254736,
      "componentType": 5126,
      "count": 572,
      "max": [
        1.0,
        1.0,
        1.0
      ],
      "min": [
        -1.0,
        -1.0,
        -1.0
      ],
      "type": "VEC3"
    },
    {
      "bufferView": 1,
      "byteOffset": 82624,
      "componentType": 5126,
      "count": 572,
      "max": [
        1.0,
        1.0
      ],
      "min": [
        0.0,
        0.01000000536441803
      ],
      "type": "VEC2"
    },
    {
      "bufferView": 0,
      "byteOffset": 208704,
      "componentType": 5125,
      "count": 1626,
      "type": "SCALAR"
    },
    {
      "bufferView": 2,
      "byteOffset": 261600,
      "componentType": 5126,
      "count": 188,
      "max": [
        0.01714153029024601,
        0.01714153029024601,
        -0.01430421695113182
      ],
      "min": [
        -0.01714153215289116,
        -0.01714153029024601,
        -0.028733884915709496
      ],
      "type": "VEC3"
    },
    {
      "bufferView": 2,
      "byteOffset": 263856,
      "componentType": 5126,
      "count": 188,
      "max": [
        1.0,
        1.0,
        1.8952206914946146e-07
      ],
      "min": [
        -1.0,
        -1.0,
        -1.0
      ],
      "type": "VEC3"
    },
    {
      "bufferView": 1,
      "byteOffset": 87200,
      "componentType": 5126,
      "count": 188,
      "max": [
        0.8261041045188904,
        0.3261045813560486
      ],
      "min": [
        0.6738951802253723,
        0.17389531433582306
      ],
      "type": "VEC2"
    },
    {
      "bufferView": 0,
      "byteOffset": 215208,
      "componentType": 5125,
      "count": 474,
      "type": "SCALAR"
    }
  ],
  "asset": {
    "extras": {
      "author": "Jopa Shnik (https://sketchfab.com/golovashenco_dima)",
      "license": "CC-BY-4.0 (http://creativecommons.org/licenses/by/4.0/)",
      "source": "https://sketchfab.com/3d-models/hanging-led-lamp-3e10c56d38de491d958285db17549251",
      "title": "Hanging LED Lamp"
    },
    "generator": "Sketchfab-15.30.0",
    "version": "2.0"
  },
  "bufferViews": [
    {
      "buffer": 0,
      "byteLength": 217104,
      "name": "floatBufferViews",
      "target": 34963
    },
    {
      "buffer": 0,
      "byteLength": 88704,
      "byteOffset": 217104,
      "byteStride": 8,
      "name": "floatBufferViews",
      "target": 34962
    },
    {
      "buffer": 0,
      "byteLength": 266112,
      "byteOffset": 305808,
      "byteStride": 12,
      "name": "floatBufferViews",
      "target": 34962
    }
  ],
  "buffers": [
    {
      "byteLength": 571920,
      "uri": "scene.bin"
    }
  ],
  "extensionsUsed": [
    "KHR_materials_specular",
    "KHR_materials_emissive_strength"
  ],
  "materials": [
    {
      "doubleSided": true,
      "extensions": {
        "KHR_materials_specular": {
          "specularColorFactor": [
            1.0,
            1.0,
            1.0
          ],
          "specularFactor": 0.7847642964245224
        }
      },
      "name": "metal",
      "pbrMetallicRoughness": {
        "baseColorFactor": [
          0.496923,
          0.31854,
          0.191622,
          1.0
        ],
        "metallicFactor": 0.0,
        "roughnessFactor": 0.09600029257232022
      }
    },
    {
      "doubleSided": true,
      "emissiveFactor": [
        1.0,
        0.955209,
        0.688363
      ],
      "extensions": {
        "KHR_materials_emissive_strength": {
          "emissiveStrength": 10.0
        }
      },
      "name": "light",
      "pbrMetallicRoughness": {
        "metallicFactor": 0.0
      }
    },
    {
      "doubleSided": true,
      "name": "material",
      "pbrMetallicRoughness": {
        "baseColorFactor": [
          0.6831716576944958,
          0.5584145075209924,
          0.4851167236961283,
          1.0
        ],
        "metallicFactor": 0.6872401896843876,
        "roughnessFactor": 0.33981055942265725
      }
    },
    {
      "doubleSided": true,
      "name": "material_3",
      "pbrMetallicRoughness": {
        "baseColorFactor": [
          0.23301399999999986,
          0.15140600000000004,
          0.09280589999999996,
          1.0
        ],
        "metallicFactor": 0.4007631261352415,
        "roughnessFactor": 0.08990503590106179
      }
    }
  ],
  "meshes": [
    {
      "name": "lamp_metal_0",
      "primitives": [
        {
          "attributes": {
            "NORMAL": 1,
            "POSITION": 0,
            "TEXCOORD_0": 2
          },
          "indices": 3,
          "material": 0,
          "mode": 4
        }
      ]
    },
    {
      "name": "lamp_light_0",
      "primitives": [
        {
          "attributes": {
            "NORMAL": 5,
            "POSITION": 4,
            "TEXCOORD_0": 6
          },
          "indices": 7,
          "material": 1,
          "mode": 4
        }
      ]
    },
    {
      "name": "lamp_1_0",
      "primitives": [
        {
          "attributes": {
            "NORMAL": 9,
            "POSITION": 8,
            "TEXCOORD_0": 10
          },
          "indices": 11,
          "material": 2,
          "mode": 4
        }
      ]
    },
    {
      "name": "Cylinder_2_0",
      "primitives": [
        {
          "attributes": {
            "NORMAL": 13,
            "POSITION": 12,
            "TEXCOORD_0": 14
          },
          "indices": 15,
          "material": 3,
          "mode": 4
        }
      ]
    },
    {
      "name": "Cylinder_metal_0",
      "primitives": [
        {
          "attributes": {
            "NORMAL": 17,
            "POSITION": 16,
            "TEXCOORD_0": 18
          },
          "indices": 19,
          "material": 0,
          "mode": 4
        }
      ]
    }
  ],
  "nodes": [
    {
      "children": [
        1
      ],
      "matrix": [
        1.7590084075927734,
        0.0,
        0.0,
        0.0,
        0.0,
        3.905783269237458e-16,
        -1.7590084075927734,
        0.0,
        0.0,
        1.7590084075927734,
        3.905783269237458e-16,
        0.0,
        0.0,
        0.0,
        0.0,
        1.0
      ],
      "name": "Sketchfab_model"
    },
    {
      "children": [
        2
      ],
      "matrix": [
        0.009999999776482582,
        0.0,
        0.0,
        0.0,
        0.0,
        0.0,
        0.009999999776482582,
        0.0,
        0.0,
        -0.009999999776482582,
        0.0,
        0.0,
        0.0,
        0.0,
        0.0,
        1.0
      ],
      "name": "lamp1.fbx"
    },
    {
      "children": [
        3,
        7
      ],
      "name": "RootNode"
    },
    {
      "children": [
        4,
        5,
        6
      ],
      "matrix": [
        100.0,
        0.0,
        0.0,
        0.0,
        0.0,
        -1.629206793918314e-05,
        -99.99999999999868,
        0.0,
        0.0,
        99.99999999999868,
        -1.629206793918314e-05,
        0.0,
        0.0,
        0.0,
        0.0,
        1.0
      ],
      "name": "lamp"
    },
    {
      "mesh": 0,
      "name": "lamp_metal_0"
    },
    {
      "mesh": 1,
      "name": "lamp_light_0"
    },
    {
      "mesh": 2,
      "name": "lamp_1_0"
    },
    {
      "children": [
        8,
        9
      ],
      "matrix": [
        100.0,
        0.0,
        0.0,
        0.0,
        0.0,
        -1.629206793918314e-05,
        -99.99999999999868,
        0.0,
        0.0,
        99.99999999999868,
        -1.629206793918314e-05,
        0.0,
        0.0,
        68.30467224121094,
        0.0,
        1.0
      ],
      "name": "Cylinder"
    },
    {
      "mesh": 3,
      "name": "Cylinder_2_0"
    },
    {
      "mesh": 4,
      "name": "Cylinder_metal_0"
    }
  ],
  "scene": 0,
  "scenes": [
    {
      "name": "Sketchfab_Scene",
      "nodes": [
        0
      ]
    }
  ]
}
